<?xml version="1.0" standalone="no"?><!DOCTYPE svg PUBLIC "-//W3C//DTD SVG 1.1//EN" "http://www.w3.org/Graphics/SVG/1.1/DTD/svg11.dtd"><svg t="1610247423042" class="icon" viewBox="0 0 1024 1024" version="1.1" xmlns="http://www.w3.org/2000/svg" p-id="3288" xmlns:xlink="http://www.w3.org/1999/xlink" width="200" height="200"><defs><style type="text/css"></style></defs><path d="M1.7174 112.919078v798.161844a112.919078 112.919078 0 0 0 112.919078 112.919078h794.727044a112.919078 112.919078 0 0 0 112.919078-112.919078V112.919078A112.919078 112.919078 0 0 0 909.363522 0H114.636478A112.919078 112.919078 0 0 0 1.7174 112.919078z m847.966457 847.107756H170.022642a112.919078 112.919078 0 0 1-112.919078-112.919077V168.305241a112.919078 112.919078 0 0 1 112.919078-112.919077h679.661215a112.919078 112.919078 0 0 1 112.919078 112.919077v678.802516a112.919078 112.919078 0 0 1-112.919078 112.919077z" fill="#ffffff" p-id="3289" data-spm-anchor-id="a313x.7781069.0.i24" class="selected"></path><path d="M57.103564 52.810063m73.848218 0l757.802935 0q73.848218 0 73.848218 73.848218l0 756.944235q0 73.848218-73.848218 73.848218l-757.802935 0q-73.848218 0-73.848218-73.848218l0-756.944235q0-73.848218 73.848218-73.848218Z" fill="#ffefc0" p-id="3290" data-spm-anchor-id="a313x.7781069.0.i23" class=""></path></svg>