<?xml version="1.0" standalone="no"?><!DOCTYPE svg PUBLIC "-//W3C//DTD SVG 1.1//EN" "http://www.w3.org/Graphics/SVG/1.1/DTD/svg11.dtd"><svg t="1610288009167" class="icon" viewBox="0 0 1024 1024" version="1.1" xmlns="http://www.w3.org/2000/svg" p-id="1288" xmlns:xlink="http://www.w3.org/1999/xlink" width="200" height="200"><defs><style type="text/css"></style></defs><path d="M512.28 112.16c-220.91 0-400 179.09-400 400a400 400 0 0 0 800 0c0-220.92-179.09-400-400-400z m133.88 717a343.58 343.58 0 0 1-353.24-52 224.08 224.08 0 0 1 438.24 0.4 342.14 342.14 0 0 1-85 51.59z m-133.88-317a88 88 0 1 1 88-88 88.1 88.1 0 0 1-88 88z m264.3 220.19a280.57 280.57 0 0 0-198.15-180.26A144 144 0 1 0 446 552a280.56 280.56 0 0 0-198.42 179.89 344.25 344.25 0 1 1 529 0.46z" p-id="1289"></path></svg>